# Blender v2.92.0 OBJ File: ''
# www.blender.org
mtllib untitled.mtl
o Rock__MI_Rock_01
v 0.013691 0.000260 0.007436
v 0.009995 -0.001639 0.007055
v 0.012833 -0.000377 -0.001252
v 0.002991 -0.003716 0.007060
v -0.000585 -0.003871 -0.004133
v 0.010275 0.000297 -0.009604
v -0.006092 -0.001079 -0.014697
v -0.006951 -0.002745 0.010034
v -0.010134 -0.002488 -0.010908
v -0.012008 -0.002310 0.002995
v 0.013691 0.000260 0.007436
v 0.012277 0.002935 0.012661
v 0.009995 -0.001639 0.007055
v 0.002991 -0.003716 0.007060
v -0.006951 -0.002745 0.010034
v -0.006674 0.000193 0.013487
v 0.002579 0.005166 0.015866
v 0.008093 0.011330 0.016321
v -0.005992 0.006205 0.016534
v -0.000848 0.014982 0.017008
v 0.004075 0.017315 0.016886
v -0.005770 0.012649 0.017130
v -0.005085 0.018837 0.011896
v 0.005342 0.019771 0.014863
v 0.008093 0.011330 0.016321
v -0.014736 0.016247 0.008852
v 0.010583 0.017875 0.006043
v -0.014155 0.008175 0.010725
v -0.005992 0.006205 0.016534
v 0.015814 0.005054 0.005314
v 0.012277 0.002935 0.012661
v 0.013691 0.000260 0.007436
v 0.014525 0.016920 -0.002481
v 0.018434 0.007435 -0.004380
v 0.016434 0.004180 -0.005579
v 0.012833 -0.000377 -0.001252
v 0.010275 0.000297 -0.009604
v 0.011100 0.004436 -0.015420
v 0.013946 0.012809 -0.011788
v 0.008462 0.002291 -0.015565
v -0.006092 -0.001079 -0.014697
v 0.007456 0.012287 -0.018071
v -0.002100 0.006513 -0.018229
v -0.010020 0.001660 -0.016234
v 0.003775 0.015983 -0.017589
v 0.009614 0.020165 -0.006455
v 0.007315 0.021864 0.004185
v 0.003490 0.023467 0.009733
v -0.000803 0.026837 0.004587
v -0.010180 0.025207 0.003010
v -0.001678 0.024185 -0.002076
v -0.017358 0.013939 0.004899
v -0.010724 0.025220 0.000122
v -0.002717 0.019260 -0.013461
v -0.002313 0.016166 -0.018278
v -0.008631 0.015193 -0.017838
v -0.015284 0.017262 -0.005839
v -0.012768 0.008232 -0.015511
v -0.018486 0.009798 0.001839
v -0.013928 0.002208 -0.007084
v -0.006092 -0.001079 -0.014697
v -0.010134 -0.002488 -0.010908
v -0.012008 -0.002310 0.002995
v -0.014471 0.000771 0.003461
v -0.009684 -0.000605 0.009341
v -0.006951 -0.002745 0.010034
v -0.006674 0.000193 0.013487
vt 0.929427 0.056153
vt 0.928679 0.117098
vt 0.804120 0.081559
vt 0.937347 0.223499
vt 0.779019 0.284459
vt 0.683268 0.125216
vt 0.623667 0.369284
vt 0.988022 0.367636
vt 0.685374 0.426886
vt 0.888686 0.445731
vt 0.680583 0.060151
vt 0.656169 0.156573
vt 0.614694 0.033921
vt 0.490272 0.013672
vt 0.317495 0.069612
vt 0.324529 0.148989
vt 0.492958 0.230549
vt 0.602167 0.319402
vt 0.346334 0.269581
vt 0.463584 0.403235
vt 0.548211 0.432807
vt 0.365454 0.386160
vt 0.417578 0.488579
vt 0.546761 0.476875
vt 0.672969 0.459861
vt 0.324453 0.545342
vt 0.587808 0.586191
vt 0.242771 0.506676
vt 0.243702 0.350317
vt 0.734615 0.647196
vt 0.789456 0.552422
vt 0.806470 0.648371
vt 0.586908 0.671016
vt 0.659861 0.727489
vt 0.672206 0.768124
vt 0.767437 0.769513
vt 0.648493 0.884169
vt 0.577783 0.829755
vt 0.569970 0.748089
vt 0.565972 0.854643
vt 0.387289 0.960708
vt 0.513207 0.784298
vt 0.430457 0.847623
vt 0.307500 0.888350
vt 0.482109 0.763775
vt 0.534325 0.682597
vt 0.537316 0.594827
vt 0.506264 0.536797
vt 0.466468 0.580865
vt 0.400595 0.591989
vt 0.456825 0.633677
vt 0.296254 0.582971
vt 0.399054 0.612696
vt 0.440482 0.723308
vt 0.438758 0.764675
vt 0.394049 0.761074
vt 0.345235 0.667994
vt 0.324163 0.797177
vt 0.257832 0.615808
vt 0.210468 0.751324
vt 0.229587 0.970565
vt 0.166537 0.863386
vt 0.070832 0.623743
vt 0.136690 0.607477
vt 0.091188 0.483055
vt 0.030808 0.446052
vt 0.112612 0.385458
vn 0.4552 -0.8901 0.0204
vn 0.3548 -0.9347 -0.0207
vn 0.3062 -0.9480 -0.0866
vn 0.1122 -0.9935 -0.0162
vn 0.0742 -0.9887 -0.1299
vn 0.2467 -0.9419 -0.2278
vn 0.1125 -0.9446 -0.3083
vn -0.1056 -0.9942 0.0219
vn -0.0226 -0.9868 -0.1601
vn -0.0872 -0.9962 0.0010
vn 0.3544 -0.7900 0.5002
vn 0.2289 -0.6432 0.7306
vn 0.2738 -0.7968 0.5386
vn 0.1501 -0.7511 0.6429
vn 0.1342 -0.7525 0.6447
vn 0.0996 -0.6556 0.7484
vn 0.1098 -0.3645 0.9247
vn 0.1210 -0.1682 0.9783
vn 0.0427 -0.2705 0.9618
vn -0.1267 0.3038 0.9443
vn 0.1152 0.3941 0.9118
vn -0.3087 0.2190 0.9256
vn -0.3066 0.6689 0.6772
vn 0.3731 0.6727 0.6389
vn 0.8225 0.3134 0.4747
vn -0.7094 0.4198 0.5661
vn 0.7918 0.5114 0.3339
vn -0.7609 -0.1726 0.6254
vn -0.6273 -0.2056 0.7512
vn 0.9462 -0.0049 0.3235
vn 0.8867 0.0914 0.4532
vn 0.9033 -0.3577 0.2366
vn 0.8153 0.5782 0.0298
vn 0.9946 -0.0370 -0.0966
vn 0.7974 -0.5488 -0.2508
vn 0.7288 -0.6764 -0.1060
vn 0.5358 -0.7645 -0.3582
vn 0.6131 -0.3354 -0.7152
vn 0.7674 0.3618 -0.5293
vn 0.3059 -0.6293 -0.7144
vn 0.0694 -0.5282 -0.8463
vn 0.3839 0.2053 -0.9003
vn -0.0043 -0.2074 -0.9782
vn -0.4823 -0.4311 -0.7626
vn 0.2235 0.5618 -0.7965
vn 0.4676 0.8283 -0.3085
vn 0.6077 0.7843 0.1251
vn 0.2548 0.8523 0.4568
vn 0.0794 0.9816 0.1736
vn -0.4826 0.8130 0.3256
vn 0.0902 0.9163 -0.3900
vn -0.9336 0.2615 0.2450
vn -0.4948 0.8527 -0.1673
vn -0.0147 0.8781 -0.4782
vn -0.0086 0.4855 -0.8742
vn -0.4129 0.4123 -0.8121
vn -0.8473 0.4315 -0.3094
vn -0.7742 -0.0412 -0.6316
vn -0.9957 -0.0833 0.0393
vn -0.8856 -0.4096 -0.2190
vn -0.2925 -0.7515 -0.5914
vn -0.7421 -0.5692 -0.3539
vn -0.7577 -0.6326 0.1603
vn -0.8366 -0.5156 0.1847
vn -0.6666 -0.5325 0.5217
vn -0.6102 -0.6191 0.4942
vn -0.7378 -0.3158 0.5965
usemtl MI_Rock_01
s 1
f 1/1/1 2/2/2 3/3/3
f 2/2/2 4/4/4 3/3/3
f 3/3/3 4/4/4 5/5/5
f 6/6/6 3/3/3 5/5/5
f 5/5/5 7/7/7 6/6/6
f 4/4/4 8/8/8 5/5/5
f 9/9/9 7/7/7 5/5/5
f 5/5/5 8/8/8 9/9/9
f 8/8/8 10/10/10 9/9/9
f 11/11/11 12/12/12 13/13/13
f 14/14/14 13/13/13 12/12/12
f 14/14/14 12/12/12 15/15/15
f 12/12/12 16/16/16 15/15/15
f 12/12/12 17/17/17 16/16/16
f 12/12/12 18/18/18 17/17/17
f 17/17/17 19/19/19 16/16/16
f 18/18/18 20/20/20 17/17/17
f 17/17/17 20/20/20 19/19/19
f 21/21/21 20/20/20 18/18/18
f 19/19/19 20/20/20 22/22/22
f 23/23/23 20/20/20 21/21/21
f 23/23/23 22/22/22 20/20/20
f 24/24/24 23/23/23 21/21/21
f 21/21/21 25/25/25 24/24/24
f 23/23/23 26/26/26 22/22/22
f 25/25/25 27/27/27 24/24/24
f 22/22/22 26/26/26 28/28/28
f 29/29/29 22/22/22 28/28/28
f 25/25/25 30/30/30 27/27/27
f 25/25/25 31/31/31 30/30/30
f 31/31/31 32/32/32 30/30/30
f 33/33/33 27/27/27 30/30/30
f 32/32/32 34/34/34 30/30/30
f 33/33/33 30/30/30 34/34/34
f 35/35/35 34/34/34 32/32/32
f 32/32/32 36/36/36 35/35/35
f 37/37/37 35/35/35 36/36/36
f 38/38/38 34/34/34 35/35/35
f 35/35/35 37/37/37 38/38/38
f 34/34/34 39/39/39 33/33/33
f 38/38/38 39/39/39 34/34/34
f 37/37/37 40/40/40 38/38/38
f 41/41/41 40/40/40 37/37/37
f 38/38/38 42/42/42 39/39/39
f 40/40/40 42/42/42 38/38/38
f 41/41/41 43/43/43 40/40/40
f 43/43/43 42/42/42 40/40/40
f 41/41/41 44/44/44 43/43/43
f 45/45/45 39/39/39 42/42/42
f 42/42/42 43/43/43 45/45/45
f 46/46/46 33/33/33 39/39/39
f 46/46/46 39/39/39 45/45/45
f 33/33/33 47/47/47 27/27/27
f 46/46/46 47/47/47 33/33/33
f 27/27/27 47/47/47 24/24/24
f 24/24/24 47/47/47 48/48/48
f 24/24/24 48/48/48 23/23/23
f 48/48/48 47/47/47 49/49/49
f 23/23/23 48/48/48 49/49/49
f 49/49/49 47/47/47 46/46/46
f 23/23/23 49/49/49 50/50/50
f 26/26/26 23/23/23 50/50/50
f 51/51/51 49/49/49 46/46/46
f 26/26/26 50/50/50 52/52/52
f 52/52/52 28/28/28 26/26/26
f 49/49/49 53/53/53 50/50/50
f 51/51/51 53/53/53 49/49/49
f 52/52/52 50/50/50 53/53/53
f 46/46/46 54/54/54 51/51/51
f 51/51/51 54/54/54 53/53/53
f 45/45/45 54/54/54 46/46/46
f 45/45/45 55/55/55 54/54/54
f 43/43/43 55/55/55 45/45/45
f 54/54/54 55/55/55 56/56/56
f 43/43/43 56/56/56 55/55/55
f 53/53/53 54/54/54 56/56/56
f 44/44/44 56/56/56 43/43/43
f 56/56/56 57/57/57 53/53/53
f 57/57/57 52/52/52 53/53/53
f 58/58/58 56/56/56 44/44/44
f 58/58/58 57/57/57 56/56/56
f 59/59/59 52/52/52 57/57/57
f 59/59/59 57/57/57 58/58/58
f 59/59/59 28/28/28 52/52/52
f 60/60/60 58/58/58 44/44/44
f 58/58/58 60/60/60 59/59/59
f 61/61/61 62/62/62 44/44/44
f 62/62/62 60/60/60 44/44/44
f 60/60/60 62/62/62 63/63/63
f 59/59/59 60/60/60 64/64/64
f 64/64/64 60/60/60 63/63/63
f 64/64/64 28/28/28 59/59/59
f 63/63/63 65/65/65 64/64/64
f 65/65/65 28/28/28 64/64/64
f 66/66/66 65/65/65 63/63/63
f 29/29/29 28/28/28 65/65/65
f 67/67/67 65/65/65 66/66/66
f 65/65/65 67/67/67 29/29/29
o Rock__MI_Rock_01.001_Mesh
v 0.013691 0.000260 0.007436
v 0.009995 -0.001639 0.007055
v 0.012833 -0.000377 -0.001252
v 0.002991 -0.003716 0.007060
v -0.000585 -0.003871 -0.004133
v 0.010275 0.000297 -0.009604
v -0.006092 -0.001079 -0.014697
v -0.006951 -0.002745 0.010034
v -0.010133 -0.002488 -0.010908
v -0.012008 -0.002310 0.002995
v 0.013691 0.000260 0.007436
v 0.012277 0.002935 0.012661
v 0.009995 -0.001639 0.007055
v 0.002991 -0.003716 0.007060
v -0.006951 -0.002745 0.010034
v -0.006674 0.000193 0.013487
v 0.002579 0.005166 0.015866
v 0.008093 0.011330 0.016321
v -0.005992 0.006205 0.016534
v -0.000848 0.014982 0.017008
v 0.004075 0.017315 0.016886
v -0.005770 0.012649 0.017130
v -0.005085 0.018837 0.011896
v 0.005342 0.019771 0.014863
v 0.008093 0.011330 0.016321
v -0.014736 0.016247 0.008852
v 0.010583 0.017875 0.006043
v -0.014155 0.008175 0.010725
v -0.005992 0.006205 0.016534
v 0.015814 0.005054 0.005314
v 0.012277 0.002935 0.012661
v 0.013691 0.000260 0.007436
v 0.014525 0.016920 -0.002481
v 0.018434 0.007435 -0.004380
v 0.016434 0.004180 -0.005579
v 0.012833 -0.000377 -0.001252
v 0.010275 0.000297 -0.009604
v 0.011100 0.004436 -0.015420
v 0.013946 0.012809 -0.011788
v 0.008462 0.002291 -0.015565
v -0.006092 -0.001079 -0.014697
v 0.007456 0.012287 -0.018071
v -0.002100 0.006513 -0.018229
v -0.010020 0.001660 -0.016234
v 0.003775 0.015983 -0.017589
v 0.009614 0.020165 -0.006455
v 0.007315 0.021864 0.004185
v 0.003490 0.023467 0.009733
v -0.000803 0.026837 0.004587
v -0.010180 0.025207 0.003010
v -0.001678 0.024185 -0.002076
v -0.017358 0.013939 0.004899
v -0.010724 0.025220 0.000122
v -0.002717 0.019260 -0.013461
v -0.002313 0.016166 -0.018278
v -0.008631 0.015193 -0.017838
v -0.015284 0.017262 -0.005839
v -0.012768 0.008232 -0.015511
v -0.018486 0.009798 0.001839
v -0.013928 0.002208 -0.007084
v -0.006092 -0.001079 -0.014697
v -0.010133 -0.002488 -0.010908
v -0.012008 -0.002310 0.002995
v -0.014471 0.000771 0.003461
v -0.009684 -0.000605 0.009341
v -0.006951 -0.002745 0.010034
v -0.006674 0.000193 0.013487
vt 0.929427 0.056153
vt 0.928679 0.117098
vt 0.804120 0.081559
vt 0.937346 0.223499
vt 0.779019 0.284459
vt 0.683268 0.125216
vt 0.623667 0.369284
vt 0.988022 0.367636
vt 0.685374 0.426886
vt 0.888685 0.445731
vt 0.680583 0.060151
vt 0.656168 0.156573
vt 0.614694 0.033921
vt 0.490272 0.013672
vt 0.317494 0.069612
vt 0.324529 0.148989
vt 0.492958 0.230549
vt 0.602167 0.319402
vt 0.346334 0.269581
vt 0.463584 0.403235
vt 0.548211 0.432807
vt 0.365454 0.386160
vt 0.417578 0.488579
vt 0.546761 0.476875
vt 0.672969 0.459861
vt 0.324453 0.545342
vt 0.587808 0.586191
vt 0.242771 0.506676
vt 0.243702 0.350317
vt 0.734615 0.647196
vt 0.789456 0.552422
vt 0.806470 0.648371
vt 0.586908 0.671016
vt 0.659861 0.727489
vt 0.672206 0.768124
vt 0.767437 0.769512
vt 0.648493 0.884169
vt 0.577783 0.829755
vt 0.569970 0.748089
vt 0.565972 0.854643
vt 0.387289 0.960708
vt 0.513207 0.784298
vt 0.430457 0.847623
vt 0.307500 0.888350
vt 0.482109 0.763775
vt 0.534325 0.682597
vt 0.537316 0.594827
vt 0.506264 0.536797
vt 0.466468 0.580865
vt 0.400595 0.591989
vt 0.456825 0.633677
vt 0.296254 0.582971
vt 0.399054 0.612696
vt 0.440482 0.723308
vt 0.438758 0.764675
vt 0.394049 0.761074
vt 0.345235 0.667994
vt 0.324163 0.797177
vt 0.257832 0.615808
vt 0.210468 0.751324
vt 0.229587 0.970565
vt 0.166537 0.863386
vt 0.070832 0.623743
vt 0.136690 0.607477
vt 0.091188 0.483055
vt 0.030808 0.446052
vt 0.112612 0.385458
vn 0.7390 -0.6315 0.2346
vn 0.3149 -0.9211 0.2288
vn 0.4634 -0.8799 -0.1056
vn 0.1271 -0.9545 0.2699
vn 0.0588 -0.9911 -0.1195
vn 0.3579 -0.8839 -0.3011
vn 0.0803 -0.8026 -0.5911
vn -0.0743 -0.9449 0.3189
vn -0.3876 -0.9025 -0.1879
vn -0.4050 -0.9138 0.0313
vn 0.5950 -0.3093 0.7418
vn -0.1056 -0.6356 0.7647
vn 0.1135 -0.3717 0.9214
vn 0.6458 0.1350 0.7515
vn -0.3012 -0.2602 0.9174
vn -0.0919 0.2249 0.9700
vn 0.0392 0.3913 0.9194
vn -0.4150 0.2623 0.8712
vn -0.3150 0.6691 0.6731
vn 0.4693 0.6512 0.5964
vn -0.6460 0.4580 0.6107
vn 0.8238 0.4363 0.3620
vn -0.7477 -0.1840 0.6381
vn -0.3012 -0.2601 0.9174
vn 0.9206 0.1548 0.3585
vn 0.5950 -0.3092 0.7418
vn 0.8440 0.5306 0.0783
vn 0.9948 0.0842 -0.0568
vn 0.7883 -0.5712 -0.2288
vn 0.4634 -0.8798 -0.1056
vn 0.3579 -0.8839 -0.3012
vn 0.6970 -0.2349 -0.6775
vn 0.7673 0.3660 -0.5266
vn 0.2115 -0.6404 -0.7383
vn 0.0803 -0.8025 -0.5912
vn 0.3564 0.1077 -0.9281
vn -0.0059 -0.2291 -0.9734
vn -0.4976 -0.3506 -0.7934
vn 0.2541 0.6333 -0.7310
vn 0.4224 0.8409 -0.3383
vn 0.5894 0.8028 0.0901
vn 0.1567 0.8498 0.5032
vn 0.0626 0.9746 0.2152
vn -0.4461 0.7494 0.4892
vn 0.0960 0.9143 -0.3935
vn -0.9280 0.3250 0.1821
vn -0.4956 0.8247 -0.2723
vn -0.0156 0.8860 -0.4635
vn -0.0019 0.3599 -0.9330
vn -0.4662 0.4623 -0.7542
vn -0.8426 0.4291 -0.3253
vn -0.8453 -0.0020 -0.5342
vn -0.9919 -0.1193 -0.0430
vn -0.8993 -0.3773 -0.2209
vn -0.8659 -0.4711 0.1681
vn -0.6714 -0.4835 0.5617
usemtl MI_Rock_01.001
s 1
f 68/68/68 69/69/69 70/70/70
f 69/69/69 71/71/71 70/70/70
f 70/70/70 71/71/71 72/72/72
f 73/73/73 70/70/70 72/72/72
f 72/72/72 74/74/74 73/73/73
f 71/71/71 75/75/75 72/72/72
f 76/76/76 74/74/74 72/72/72
f 72/72/72 75/75/75 76/76/76
f 75/75/75 77/77/77 76/76/76
f 78/78/68 79/79/78 80/80/69
f 81/81/71 80/80/69 79/79/78
f 81/81/71 79/79/78 82/82/75
f 79/79/78 83/83/79 82/82/75
f 79/79/78 84/84/80 83/83/79
f 79/79/78 85/85/81 84/84/80
f 84/84/80 86/86/82 83/83/79
f 85/85/81 87/87/83 84/84/80
f 84/84/80 87/87/83 86/86/82
f 88/88/84 87/87/83 85/85/81
f 86/86/82 87/87/83 89/89/85
f 90/90/86 87/87/83 88/88/84
f 90/90/86 89/89/85 87/87/83
f 91/91/87 90/90/86 88/88/84
f 88/88/84 92/92/81 91/91/87
f 90/90/86 93/93/88 89/89/85
f 92/92/81 94/94/89 91/91/87
f 89/89/85 93/93/88 95/95/90
f 96/96/91 89/89/85 95/95/90
f 92/92/81 97/97/92 94/94/89
f 92/92/81 98/98/93 97/97/92
f 98/98/93 99/99/68 97/97/92
f 100/100/94 94/94/89 97/97/92
f 99/99/68 101/101/95 97/97/92
f 100/100/94 97/97/92 101/101/95
f 102/102/96 101/101/95 99/99/68
f 99/99/68 103/103/97 102/102/96
f 104/104/98 102/102/96 103/103/97
f 105/105/99 101/101/95 102/102/96
f 102/102/96 104/104/98 105/105/99
f 101/101/95 106/106/100 100/100/94
f 105/105/99 106/106/100 101/101/95
f 104/104/98 107/107/101 105/105/99
f 108/108/102 107/107/101 104/104/98
f 105/105/99 109/109/103 106/106/100
f 107/107/101 109/109/103 105/105/99
f 108/108/102 110/110/104 107/107/101
f 110/110/104 109/109/103 107/107/101
f 108/108/102 111/111/105 110/110/104
f 112/112/106 106/106/100 109/109/103
f 109/109/103 110/110/104 112/112/106
f 113/113/107 100/100/94 106/106/100
f 113/113/107 106/106/100 112/112/106
f 100/100/94 114/114/108 94/94/89
f 113/113/107 114/114/108 100/100/94
f 94/94/89 114/114/108 91/91/87
f 91/91/87 114/114/108 115/115/109
f 91/91/87 115/115/109 90/90/86
f 115/115/109 114/114/108 116/116/110
f 90/90/86 115/115/109 116/116/110
f 116/116/110 114/114/108 113/113/107
f 90/90/86 116/116/110 117/117/111
f 93/93/88 90/90/86 117/117/111
f 118/118/112 116/116/110 113/113/107
f 93/93/88 117/117/111 119/119/113
f 119/119/113 95/95/90 93/93/88
f 116/116/110 120/120/114 117/117/111
f 118/118/112 120/120/114 116/116/110
f 119/119/113 117/117/111 120/120/114
f 113/113/107 121/121/115 118/118/112
f 118/118/112 121/121/115 120/120/114
f 112/112/106 121/121/115 113/113/107
f 112/112/106 122/122/116 121/121/115
f 110/110/104 122/122/116 112/112/106
f 121/121/115 122/122/116 123/123/117
f 110/110/104 123/123/117 122/122/116
f 120/120/114 121/121/115 123/123/117
f 111/111/105 123/123/117 110/110/104
f 123/123/117 124/124/118 120/120/114
f 124/124/118 119/119/113 120/120/114
f 125/125/119 123/123/117 111/111/105
f 125/125/119 124/124/118 123/123/117
f 126/126/120 119/119/113 124/124/118
f 126/126/120 124/124/118 125/125/119
f 126/126/120 95/95/90 119/119/113
f 127/127/121 125/125/119 111/111/105
f 125/125/119 127/127/121 126/126/120
f 128/128/102 129/129/76 111/111/105
f 129/129/76 127/127/121 111/111/105
f 127/127/121 129/129/76 130/130/77
f 126/126/120 127/127/121 131/131/122
f 131/131/122 127/127/121 130/130/77
f 131/131/122 95/95/90 126/126/120
f 130/130/77 132/132/123 131/131/122
f 132/132/123 95/95/90 131/131/122
f 133/133/75 132/132/123 130/130/77
f 96/96/91 95/95/90 132/132/123
f 134/134/79 132/132/123 133/133/75
f 132/132/123 134/134/79 96/96/91
